<svg xmlns="http://www.w3.org/2000/svg" viewBox="0 0 448 512" width="24" height="24" fill="currentColor">
  <path d="M224,202.66A53.34,53.34,0,1,0,277.34,256,53.38,53.38,0,0,0,224,202.66Zm124.71-41a54,54,0,0,0-30.23-30.24c-21-8.37-71-6.45-94.48-6.45s-73.48-1.92-94.48,6.45a54,54,0,0,0-30.24,30.24c-8.37,21-6.45,71-6.45,94.48s-1.92,73.48,6.45,94.48a54,54,0,0,0,30.24,30.23c21,8.37,71,6.45,94.48,6.45s73.48,1.92,94.48-6.45a54,54,0,0,0,30.23-30.23c8.37-21,6.45-71,6.45-94.48S357.08,182.63,348.71,161.63ZM224,338A82,82,0,1,1,306,256,82,82,0,0,1,224,338Zm85.4-148.6a19.4,19.4,0,1,1-19.4-19.4A19.39,19.39,0,0,1,309.4,189.4ZM398.8,80A48,48,0,0,1,448,128v256a48,48,0,0,1-48,48H48a48,48,0,0,1-48-48V128A48,48,0,0,1,48,80H398.8Z"/>
</svg>